<?xml version="1.0" encoding="utf-8"?>
<!-- Generator: Adobe Illustrator 19.0.0, SVG Export Plug-In . SVG Version: 6.00 Build 0)  -->
<svg version="1.1" id="Layer_1" xmlns="http://www.w3.org/2000/svg" xmlns:xlink="http://www.w3.org/1999/xlink" x="0px" y="0px"
	 viewBox="0 0 201 73" style="enable-background:new 0 0 201 73;" xml:space="preserve">
<style type="text/css">
	.st0{fill:#D03027;}
	.st1{fill:#004977;}
</style>
<g id="XMLID_2_">
	<path id="Icon_1_" class="st0" d="M135.2,52.3C135.2,52.3,135.2,52.3,135.2,52.3c-8.4,6-18.3,12.2-29,18.7l-0.4,0.2
		c-0.1,0.1-0.2,0.3-0.1,0.4c0.1,0.1,0.3,0.2,0.4,0.1l0.4-0.2c9.1-4.7,19.5-10.3,29.9-16.1c0.1,0,0.1-0.1,0.2-0.1
		C136,54.4,135.6,53.4,135.2,52.3z M190.3,7.7C177-6.8,92,6.3,55.9,14.2L55,14.4c-0.2,0-0.3,0.2-0.3,0.4c0,0.2,0.2,0.3,0.4,0.3
		l0.8-0.2c30-5.3,92.3-12.7,105.7,0.6c4.1,4.1,3.1,9.3-1.6,15.4c2.6,1.6,4.4,4.2,5.2,7.5C183.7,26,196.1,14.2,190.3,7.7z"/>
	<g id="Wordmark_1_">
		<path id="XMLID_40_" class="st1" d="M140.6,48.5c0.2,5.1,3.4,9.3,7.6,9.3c8.2,0,11.7-10.1,11.4-16.8c-0.2-5.1-3.5-9.3-7.7-9.3
			C144.9,31.6,140.3,41.7,140.6,48.5z M136.2,48.2c-0.3-8.8,6.6-17.7,16.5-17.7c6.7,0,11,4.4,11.3,11.2c0.3,9.2-6.1,17.7-16.5,17.7
			C140.9,59.4,136.5,55,136.2,48.2z"/>
		<path id="XMLID_37_" class="st1" d="M41.9,45.9c-0.4,0.1-0.8,0.3-1.4,0.4c-0.6,0.1-1.6,0.3-3.1,0.6c-1,0.2-1.8,0.4-2.2,0.7
			c-0.4,0.3-0.6,0.6-0.7,1.1c-0.1,0.5,0.1,0.8,0.5,1.1c0.4,0.3,1.1,0.4,2,0.4c0.7,0,1.4-0.1,2.1-0.3c0.7-0.2,1.2-0.5,1.7-0.9
			c0.3-0.3,0.6-0.6,0.7-1.1C41.6,47.5,41.7,46.9,41.9,45.9z M50.6,40.5c0,0.8-0.2,1.5-0.4,2.7l-1.5,8.2c-0.1,0.7,0.1,1.3,0.8,1.7
			l0,0.3l-8.4,0L41,51.4c-1.2,0.7-2.7,1.4-4,1.7c-1.3,0.3-2.4,0.5-4,0.5c-2.7,0-4.3-0.3-5.3-1.2c-1.1-1-1.6-1.6-1.6-2.9
			c0-0.8,0.4-1.8,1-2.4c0.6-0.7,1.4-1.2,2.2-1.6c0.9-0.4,1.9-0.7,3.4-0.9c1.5-0.2,3.5-0.5,6.3-0.7c1.5-0.1,2.3-0.5,2.8-0.6
			c0.6-0.2,0.8-0.5,0.9-0.9c0.2-0.8-0.1-1.3-1.2-1.5c-3-0.6-8.7,0.4-11.6,1.1l1.6-4.3c3.8-0.6,7.5-0.9,11.3-0.9
			C48.7,36.5,50.6,38.3,50.6,40.5z"/>
		<path id="XMLID_34_" class="st1" d="M74.9,53.5L77.8,37h8l-2.9,16.4H74.9z M78.2,33.2c0.2-1.3,2.4-2.4,4.8-2.4
			c2.4,0,4.1,1.1,3.9,2.4c-0.3,1.4-2.4,2.4-4.8,2.4C79.7,35.7,78,34.6,78.2,33.2z"/>
		<path id="XMLID_31_" class="st1" d="M114.3,45.9c-0.4,0.1-0.8,0.3-1.4,0.4c-0.6,0.1-1.6,0.3-3.1,0.5c-1,0.2-1.8,0.4-2.2,0.7
			c-0.4,0.3-0.6,0.6-0.7,1.1c-0.1,0.5,0.1,0.8,0.5,1.1c0.4,0.3,1.1,0.4,2,0.4c0.7,0,1.4-0.1,2.1-0.3c0.7-0.2,1.3-0.5,1.7-0.9
			c0.3-0.3,0.5-0.6,0.7-1.1C114,47.5,114.2,46.9,114.3,45.9z M123,40.5c0,0.8-0.2,1.5-0.4,2.7l-1.5,8.2c-0.1,0.7,0.1,1.3,0.8,1.7
			l0,0.3l-8.4,0l-0.1-2.1c-1.2,0.7-2.7,1.4-4,1.7c-1.3,0.4-2.4,0.5-4,0.5c-2.7,0-4.2-0.3-5.3-1.2c-1.1-1-1.6-1.6-1.6-2.9
			c0-0.8,0.4-1.8,1-2.4c0.6-0.7,1.4-1.2,2.2-1.6c0.9-0.4,1.9-0.7,3.4-1c1.5-0.2,3.6-0.5,6.3-0.7c1.4-0.1,2.3-0.4,2.7-0.6
			c0.6-0.2,0.8-0.5,0.9-1c0.1-0.8-0.1-1.3-1.2-1.5c-3-0.6-8.7,0.4-11.6,1.1l1.6-4.3c3.9-0.6,7.5-0.9,11.3-0.9
			C121.1,36.6,123,38.3,123,40.5z"/>
		<path id="XMLID_12_" class="st1" d="M25,47.6c-2.6,0.5-4.1,0.7-6.7,0.7c-3.8,0-6.9-1.9-6.7-5.4c0.1-2.3,2.9-7.2,9.9-7.2
			c2.2,0,3.9,0.4,6.2,1.7l1-5.7c-3.1-1.2-5.2-1.4-7.9-1.3c-9.2,0.1-18,4.3-19.1,12.8c-1.1,8.6,9.4,10.8,14.1,10.8
			c2.7,0,5.5-0.1,8.1-0.4L25,47.6z"/>
		<path id="XMLID_11_" class="st1" d="M90.2,36.9l0.6-3.3l8.4-1.8l-0.9,5.2h4.1l-0.8,3.3l-4,0l-2.4,13.2c0,0-8.1-0.1-8.1,0l2.4-13.2
			h-3.1l0.6-3.3H90.2z"/>
		<polygon id="XMLID_10_" class="st1" points="131.1,53.4 123,53.5 127.1,30.5 135,30.8 		"/>
		<path id="XMLID_25_" class="st1" d="M64.2,40.9c-1.1,0-2,0.3-2.9,1c-0.8,0.6-1.4,1.6-1.6,2.8c-0.3,1.4-0.1,2.5,0.5,3.1
			c0.6,0.6,1.4,0.9,2.5,0.9c0.7,0,1.5-0.1,2-0.4c0.7-0.4,1.2-0.7,1.6-1.4c0.4-0.6,0.7-1.3,0.9-2.2c0.2-1.3,0-2.3-0.6-2.9
			C66.1,41.2,65.3,40.9,64.2,40.9z M49.6,59.1l3.9-22h7.1L60,39.9c0.6-0.8,1.6-1.5,2.9-2.1c1.4-0.6,2.9-1,4.6-1c1.8,0,3,0.1,4.4,0.8
			c1.4,0.7,2.3,1.8,2.8,3.1c0.5,1.3,0.6,2.8,0.4,4.5c-0.5,2.7-1.8,4.9-4,6.4c-2.2,1.6-4.1,2-6.9,2c-1,0-1.8-0.1-2.5-0.3
			c-0.7-0.2-1.2-0.4-1.6-0.6c-0.4-0.3-0.8-0.6-1.3-1.2l-1.3,7.5H49.6z"/>
		<path id="XMLID_4_" class="st1" d="M195.4,42.9c0-1.3-0.7-2.2-2.1-2.2c-3.3,0-6.8,6.5-7.4,9.1C191.3,49.7,195.6,46.5,195.4,42.9z
			 M196.1,53l0.6,0.4c-1.6,3.3-4.9,5.9-8.7,5.9c-3.1,0-5.7-2.1-5.9-6c-0.3-7,6.3-13.6,11.7-13.6c2.3,0,4.5,1,4.6,3.5
			c0.2,5.6-7.7,7.3-12.8,7.4c-0.2,0.6-0.2,1.2-0.2,2.1c0.1,2.3,1.5,4.3,4.4,4.3C192.3,57,194.9,55,196.1,53z"/>
		<path id="XMLID_5_" class="st1" d="M163.9,42.7c0.6-0.1,1.5-0.2,1.8-0.2c0.6,0,1.1,0.1,1.2,0.7c0,0.3-0.6,2.8-0.7,3.4l-1.3,5.5
			c-0.5,2.3-1.1,4.6-1.5,6.5h3.2l1.8-8.8c5.5-5.7,7.6-7.6,8.9-7.6c0.6,0,1,0.3,1,1c0,1-0.6,3.3-0.8,4l-1.8,6.4
			c-0.4,1.4-0.7,2.7-0.7,3.7c0.1,1.4,0.9,2,2.2,2c2.4,0,4.1-2.5,5.6-4.9l-0.4-0.8c-0.6,1-2,3.1-3.1,3.1c-0.3,0-0.7-0.2-0.7-0.8
			c0-0.7,0.3-1.9,0.5-2.6l2.1-7.5c0.5-2.1,0.8-3.4,0.8-4.1c-0.1-1.4-0.9-2-2.1-2c-2.1,0-4.9,1.5-10.9,8.4h-0.1l0.7-3.3
			c0.4-1.8,0.8-3.7,1.2-5.1c-2.1,0.7-5,1.6-6.8,1.9L163.9,42.7z"/>
	</g>
</g>
</svg>
